<?xml version="1.0" encoding="UTF-8"?>
<svg id="katman_1" xmlns="http://www.w3.org/2000/svg" version="1.1" viewBox="0 0 841.9 595.3">
  <!-- Generator: Adobe Illustrator 29.1.0, SVG Export Plug-In . SVG Version: 2.1.0 Build 142)  -->
  <defs>
    <style>
      .st0 {
        fill: #0c0c0c;
      }

      .st1 {
        fill: #ed1b76;
      }
    </style>
  </defs>
  <path class="st0" d="M386.6,137.7h16.3c-.3,37,0,74.1-.2,111.1-.4,24.8-23.2,46.4-48,45.5-24.3.2-46-21.1-46.9-45.3-.3-17.2,0-34.5-.1-51.7h16.4c.2,16.4,0,32.8,0,49.2-.2,11.2,5.6,21.7,15.2,27.4,12.2,7.3,29.5,5,39-5.8,6.1-6.4,8.4-15.3,8.2-23.9,0-35.5.2-70.9,0-106.4Z"/>
  <path class="st0" d="M83.8,216.2c4.3-11.3,15.2-18.9,27.3-18.9,21-.2,41.9,0,62.9,0,0,4.8.1,9.6.2,14.4-20.2.1-40.4,0-60.7,0-7-.7-13.5,3.7-15.6,10.4-1.7,6.7,4.1,13.7,10.8,14.1,16.2.9,32.5-.6,48.7.7,13.9,1.5,24.7,12.8,25.6,26.8,1.5,15.7-12.4,30.7-28.1,30.5-39.1,0-78.2.2-117.3,0v-14.9c40-.5,80,.5,120-.5,12.4-3.1,13.4-22.4.8-26.1-17.3-1.8-35,.5-52.4-1.1-15.9-2.2-28-19.8-22.3-35.3Z"/>
  <path class="st0" d="M233.3,198.5c23.9-6.2,50.5,9.7,57,33.5,6.2,18.8-1.7,40.2-16.7,52.3,8.1,15.6,15.5,31.5,23.4,47.1-2.6,5.3-5,10.6-7.6,15.9-24.4,0-48.8-.1-73.3,0-17,0-31.8,16.1-30.8,32.9.3,16.1,14.4,30.6,30.6,30.8,18.6.1,37.1.1,55.7,0-4.7-7.9-8.3-16.3-13.2-24.1-15.3.4-30.6,0-45.9.2v-15.1c18.9.1,37.8-.1,56.7.1,6.5,13,13.2,26,20,38.9h17.4c0,5.4-.1,10.7,0,16.1l-9.6-.3c5.7,10,10.6,20.5,16.1,30.6h-18c-5.2-10.1-10.5-20.3-15.6-30.4-22.1-.3-44.3.4-66.4-.3-23.7-1.8-43.2-22.9-43.9-46.6-.5-24.3,19.4-47.2,43.9-48.5,22-1,44,0,66-.4-6.7-13-13.2-26.2-19.4-39.5-10.3,3-21.5,3.6-31.6-.1-19.6-6.6-33.9-26.8-32.7-47.6.4-21.5,16.8-41.3,37.8-45.6ZM211.5,249c1.4,19.4,22.4,33.8,41.1,28.2-5.2-10.7-10.4-21.5-15.9-32l17.8.2c4.2,8,7.4,16.4,12.5,23.9,5.7-7.2,10.2-15.9,9.3-25.4-.6-17.1-16.5-31.8-33.6-30.5-18.1,0-33.3,17.8-31,35.7h0Z"/>
  <path class="st0" d="M424,197.2c5.1,0,10.2,0,15.4-.2,1.9,32.2.2,64.7.9,96.9-5.4.2-10.9.3-16.3.3.2-32.3,0-64.7,0-97Z"/>
  <path class="st0" d="M463.1,197.2c24.8.2,49.6-.3,74.4.3,23.9,1.4,44.5,22.8,44.7,46.7,1.4,25.2-20.1,49-45.4,49.9-24.6.3-49.2,0-73.9.1.2-32.3.1-64.7,0-97ZM479.6,212.9c.1,22,0,44,0,66,18.4-.2,36.8.2,55.2-.1s34.6-18.8,31.3-37.3c-1.5-15.5-15.8-28.4-31.3-28.4-18.3-.3-36.7,0-55.1-.1h0Z"/>
  <path class="st0" d="M352.8,331.3c16,31.6,30.5,64.1,46.2,95.9-5.8,0-11.5-.1-17.3-.1-9.6-19.7-18.8-39.6-28.4-59.3-9.7,19.7-18.8,39.7-28.5,59.3h-16.7c14.3-32.3,30.9-63.4,44.8-95.8Z"/>
  <path class="st0" d="M417.3,332.4c5-1.1,10.2-1.5,15.4-1.1,13.5,26.8,26.2,53.9,40.1,80.4,13.2-26.8,26.4-53.6,39.6-80.4h14.7c.2,11.5,0,23,.2,34.5-.1,13.8-.1,27.6,0,41.4-.1,6.7-.1,13.4-.2,20.1h-16c.1-20.1,0-40.3.1-60.4-10.2,20.1-19.9,40.3-30,60.4h-17.4c-10-20.1-19.8-40.2-29.8-60.3-.4,20.1,0,40.3-.2,60.4-5.5,0-10.9-.1-16.3-.1-.1-31.7.4-63.2-.3-94.8Z"/>
  <path class="st0" d="M549.9,331.3h95.3v16.5c-26.5-.1-53,0-79.6,0v63.1c26.5,0,53,.1,79.6,0v16.5c-31.8,0-63.6,0-95.4,0,0-32.2,0-64.1,0-96.1Z"/>
  <path class="st1" d="M211.6,249.1c-2.3-17.9,13-35.7,31.1-35.7,17.1-1.3,33,13.4,33.6,30.5.9,9.5-3.6,18.2-9.3,25.4-5-7.5-8.4-15.9-12.5-23.9l-17.8-.2c5.5,10.6,10.7,21.3,15.9,32-18.7,5.6-39.7-8.9-41.1-28.2Z"/>
  <path class="st1" d="M565.7,347.7h79.6v23.4h-43c0,5.3,0,10.6-.1,16h43.1v23.5c-26.5.2-53,0-79.6,0,0-20.9,0-41.9,0-62.9Z"/>
  <path class="st1" d="M324.8,427.1c9.7-19.7,18.8-39.7,28.5-59.3,9.5,19.7,18.7,39.6,28.4,59.3-19,0-38,0-57,0Z"/>
  <path class="st1" d="M690.7,411.9h-15.4v-12.2.8c0-5.5,2.8-11,8.9-12.8,17.2-1.8,34.7.5,52-1.1,15.8-2.2,27.8-21.5,22.1-36.9-4.3-11.3-15.1-18.7-27.1-18.8-20.8-.1-31.7,0-52.5,0,0,4.8,0,10.6-.2,15.3,20.1,0,30.2,0,50.3,0,7-.7,13.4,3.6,15.5,10.3,1.7,6.6-4,13.6-10.7,14-16.1.8-32.3-.6-48.4.7-13.8,1.5-24.5,12.7-25.4,26.6,0,.6,0,1.2,0,1.8h0v27.5h27.8c0,0,.2,0,.3,0,38.8,0,77.7.2,116.5,0v-14.8c-37.8-.5-75.7.4-113.5-.4Z"/>
  <path class="st0" d="M602.2,370.7c18.1,0,36.2,0,54.3,0h70.2v16.5h-124.5c0-5.6,0-11,0-16.5Z"/>
</svg>